PathFileType	4	(X/Y/Z)	c:/Users/goper/Files/vsCode/490R/osim_files/C08/C08_SSWS_03.trc
DataRate	CameraRate	NumFrames	NumMarkers	Units                	OrigDataRate	OrigDataStartFrame	OrigNumFrames
250.00	250.00	4	36	mm	250.0	2689	4301
                Frame#	Time	LPSIS			LASIS			LTH1			LTH2			LTH3			LTH4			LLFE			LMFE			LSH1			LSH2			LSH3			LSH4			LLMAL			LMMAL			LCAL			LMTP5			LTOE			LMTP1			RPSIS			RASIS			RTH1			RTH2			RTH3			RTH4			RLFE			RMFE			RSH1			RSH2			RSH3			RSH4			RLMAL			RMMAL			RCAL			RMTP1			RTOE			RMTP5		
		X1	Y1	Z1	X2	Y2	Z2	X3	Y3	Z3	X4	Y4	Z4	X5	Y5	Z5	X6	Y6	Z6	X7	Y7	Z7	X8	Y8	Z8	X9	Y9	Z9	X10	Y10	Z10	X11	Y11	Z11	X12	Y12	Z12	X13	Y13	Z13	X14	Y14	Z14	X15	Y15	Z15	X16	Y16	Z16	X17	Y17	Z17	X18	Y18	Z18	X19	Y19	Z19	X20	Y20	Z20	X21	Y21	Z21	X22	Y22	Z22	X23	Y23	Z23	X24	Y24	Z24	X25	Y25	Z25	X26	Y26	Z26	X27	Y27	Z27	X28	Y28	Z28	X29	Y29	Z29	X30	Y30	Z30	X31	Y31	Z31	X32	Y32	Z32	X33	Y33	Z33	X34	Y34	Z34	X35	Y35	Z35	X36	Y36	Z36

2689	10.75200	322.05695	1032.68457	250.87671	107.99004	991.87885	312.93539	132.47284	724.09302	386.21274	107.79323	650.63928	365.87415	84.78916	582.00946	358.65976	35.16508	681.57312	349.99445	69.74158	536.00439	348.55261	62.85292	527.39404	221.08963	93.05563	398.67981	358.57635	77.83579	354.92935	358.05109	34.75754	415.92712	359.15704	27.67794	369.50107	355.67044	12.24644	92.71693	305.11993	-12.86178	109.25394	218.05118	67.51178	70.65776	244.56171	-111.12209	49.46181	331.46719	-166.76802	89.07064	277.73492	-139.69339	62.33519	224.40468	327.82248	1032.90088	191.51863	146.93292	992.93988	73.24954	260.33560	737.73792	27.56824	270.59290	660.02924	43.71999	286.17450	583.51007	50.85413	195.21017	652.32587	62.11876	301.88980	513.26007	66.93317	0.00000	0.00000	0.00000	390.23056	465.94568	61.00589	409.44702	425.65302	57.23822	337.74332	434.02225	62.50189	363.56061	397.34689	59.09814	569.75873	170.16231	123.76810	534.87616	160.04140	208.32442	626.45221	183.48924	198.11891	467.16632	43.16771	196.79198	450.66553	54.25460	137.70982	509.75903	50.37571	83.18394
2690	10.75600	317.00879	1033.10803	251.38672	102.47184	992.25739	312.74020	126.83370	724.69403	386.70889	102.67304	651.77472	366.51334	79.58394	582.49316	359.22302	29.87283	682.12286	350.11978	64.77560	535.90247	349.47195	58.64417	527.44604	221.51814	88.56924	398.63568	359.21661	73.90273	354.86401	358.50189	30.50615	415.71683	359.45734	23.89277	369.23657	355.88635	11.48897	92.47638	305.16959	-13.81674	108.91303	218.03252	67.03003	70.92164	244.60593	-111.63541	48.36854	331.33542	-167.88574	87.12762	277.61313	-140.08194	60.58897	224.31709	322.55347	1032.78735	192.12105	141.91113	993.10040	73.45869	254.07208	737.13385	27.75941	263.63028	659.30530	43.55767	278.56390	582.58325	50.48952	187.63055	651.99500	61.34510	293.68115	512.42499	65.91615	0.00000	0.00000	0.00000	382.20328	466.08630	60.35162	401.71240	425.85410	56.44851	329.92020	433.49634	61.79287	356.30688	397.13205	58.24679	565.65686	173.01704	123.32950	530.92261	162.33138	207.91283	621.85474	187.95558	197.59508	466.20892	43.62823	196.73447	450.52893	54.03751	138.67209	508.51077	51.59414	83.18388
2691	10.76000	311.26001	1033.02930	252.21193	96.95149	992.69659	312.59009	121.20906	725.39160	387.31128	97.49731	652.30634	367.29156	74.31789	583.05566	359.76483	24.55062	682.74207	350.17307	59.80840	536.19342	349.89896	54.36956	527.59985	221.88972	84.27342	398.70627	359.80457	70.08994	354.92117	358.91617	26.34601	415.58063	359.84064	20.11094	369.02658	356.01331	10.81238	92.31756	305.20386	-14.56398	108.65350	217.92542	66.64099	71.10179	244.62642	-112.07830	47.48531	331.15051	-167.90018	84.92706	277.33136	-140.35069	58.45556	224.31517	317.32294	1032.71155	192.74403	136.96974	993.28284	73.72660	247.95828	736.45331	27.72029	256.49088	658.49384	43.35831	270.61212	581.52753	50.08553	180.38509	651.70111	60.57341	285.29898	511.64655	64.87358	0.00000	0.00000	0.00000	374.26764	466.40253	59.70591	393.87500	426.16119	55.72339	322.18860	432.90112	60.70630	348.85126	396.90146	57.38907	561.36292	175.97823	122.89350	526.72223	164.70613	207.50635	616.88788	192.53938	197.23320	465.12250	44.20887	196.59995	449.34711	54.17535	138.64755	507.11636	52.94547	83.18805
2692	10.76400	305.96054	1033.26514	252.80624	91.55605	993.16260	312.40878	115.48360	726.07794	387.90137	92.13113	652.94214	367.81793	68.97142	583.65881	360.27142	19.26525	683.50354	350.18121	55.23372	536.59625	350.19415	50.24161	527.78485	222.21753	79.90887	398.86285	360.31693	66.36314	355.03015	359.21872	22.21908	415.49945	360.10416	16.42506	368.91309	356.17010	10.15698	92.23597	305.22098	-15.03498	108.45562	217.87407	66.31484	71.25090	244.65909	-112.58331	46.85009	330.87122	-167.93044	83.08956	276.75052	-140.52588	56.58238	224.06544	312.15689	1032.67383	193.31598	132.05469	993.48248	74.03046	241.48843	735.79077	27.89268	249.08975	657.58075	43.10560	262.60864	580.51886	49.53363	172.49202	651.21655	59.85295	276.76599	510.80844	63.82838	0.00000	0.00000	0.00000	365.53146	466.27197	58.78991	385.83850	426.48410	54.94400	313.85120	432.31406	60.01353	341.16635	396.66779	56.53702	556.71307	179.14098	122.45218	522.26746	167.24765	207.10954	611.59271	197.32271	196.83760	463.87872	44.92862	196.43053	447.94882	54.42245	138.58586	505.96866	54.66161	83.26103
